<svg xmlns="http://www.w3.org/2000/svg" viewBox="0 0 48.43 46"><defs><style>.cls-1{fill:#499d91;}</style></defs><g id="Capa_2" data-name="Capa 2"><g id="Capa_1-2" data-name="Capa 1"><path class="cls-1" d="M15.87,41.29c-7.13-.74-12-3.74-12.23-6.82s4.57-5.83,6.58-7a25.25,25.25,0,0,1,15.69-2.69c0-1.17,0-2.61,0-3.79-2.81-.35-15.22-1.36-22.41,6.54C2.29,28.86-.66,32.1.13,35.26,1.09,39.11,7.32,41.9,15.87,41.29Z"/><path class="cls-1" d="M.31,30.51c4.42-6,7.5-7.84,12.26-9.47,5.24-1.8,13.25-1.28,13.25-1.28,0-.69,0-2.21.05-2.89-2.12-.24-12.48-.85-20.33,6.39A22.8,22.8,0,0,0,.31,30.51Z"/><path class="cls-1" d="M.94,27.86a26.28,26.28,0,0,1,5.65-6.38,23.87,23.87,0,0,1,6.11-3.72,32,32,0,0,1,13.16-2h0c0-.69-.11-2.21-.1-2.89-2.12-.12-12.51-.2-20,7.44A22.93,22.93,0,0,0,.94,27.86Z"/><path class="cls-1" d="M43.36,25.64c3.33,6.35,3.53,12.09,1.07,14S37.05,39,35,38A25.26,25.26,0,0,1,24.08,26.37c-1,.64-2.15,1.48-3.13,2.12C22.2,31,28.22,41.92,38.78,43.55c1.72.27,6,.94,8.25-1.46C49.71,39.16,48.59,32.43,43.36,25.64Z"/><path class="cls-1" d="M43,44.57c-7.41-.39-10.67-1.92-14.67-5-4.39-3.38-8.39-10.34-8.39-10.34-.59.35-1.84,1.22-2.43,1.56,1,1.89,6.19,10.87,16.56,13.41A22.91,22.91,0,0,0,43,44.57Z"/><path class="cls-1" d="M40.41,45.5A26.27,26.27,0,0,1,32,44.32a23.71,23.71,0,0,1-6.47-3,31.94,31.94,0,0,1-8.91-9.88h0c-.58.37-1.78,1.31-2.35,1.68C15.31,34.92,21,43.61,31.47,45.61A22.84,22.84,0,0,0,40.41,45.5Z"/><path class="cls-1" d="M15.21,14.23c2.13-6.84,6.05-11,9.11-10.63s4.81,5.63,5.51,7.83a25.2,25.2,0,0,1-.47,15.91c1.14.24,2.57.48,3.71.72.9-2.68,4.36-14.64-2-23.26-1-1.41-3.61-4.94-6.87-4.8C20.28.18,16.31,5.73,15.21,14.23Z"/><path class="cls-1" d="M28.86,1.12c5,5.52,6.2,8.91,6.85,13.9.72,5.49-1.37,13.24-1.37,13.24.66.18,2.16.44,2.82.62.65-2,3.31-12.06-2.23-21.19A22.81,22.81,0,0,0,28.86,1.12Z"/><path class="cls-1" d="M31.34,2.27a26.2,26.2,0,0,1,5.13,6.81A23.81,23.81,0,0,1,38.9,15.8a32.19,32.19,0,0,1-.69,13.29h0c.67.14,2.18.33,2.85.47.54-2,2.68-12.22-3.32-21A23,23,0,0,0,31.34,2.27Z"/></g></g></svg>