<svg xmlns="http://www.w3.org/2000/svg" viewBox="0 0 257.37 274.96"><g id="Capa_2" data-name="Capa 2"><g id="Capa_1-2" data-name="Capa 1"><path d="M71.76,244c36.26,8.21,70.1,4.14,101.76-13.76,35.28-19.93,58.21-49.89,67-89.39,3.35-15,3.52-31,3.59-46.49.06-14.53-1.84-29.08-3.06-43.61-.4-4.73-1.11-5.24-6-5C154.73,50.25,96.87,89,61,160.76c-8.51,17-13.44,35.35-16,54.26-.72,5.34-3.8,8.13-8,7.35a6.61,6.61,0,0,1-5.19-7.87q1.89-10.86,4.17-21.65a5.65,5.65,0,0,0-1.41-5.66C9.09,158.54-2.32,124.88.39,86.72,2.61,55.41,14.93,28.21,36.29,5.18,41.68-.64,49.42-1.66,56.4,2.65q37.39,23.07,47.09,66c.87,3.85,1.35,7.79,2.07,12.06a28.49,28.49,0,0,0,2.52-1.63A208.14,208.14,0,0,1,209.65,34.77a265.57,265.57,0,0,1,27.21-2.16c8.58-.38,15.17,5.18,16.54,13.64A303.24,303.24,0,0,1,255,133.12c-7.31,57.7-54.05,111-117.36,124.48a152.48,152.48,0,0,1-78-3.57,9,9,0,0,0-5.82.68c-13.65,6.37-27.17,13-40.82,19.4-4.32,2-8.2.32-9.51-3.53-1.2-3.52.59-6.57,4.69-8.5,12.18-5.71,24.67-10.85,36.4-17.37,47.78-26.58,85.76-63.49,114.15-110.23.84-1.38,1.61-2.81,2.51-4.16,2.4-3.65,6-4.62,9.28-2.54,3.07,1.93,4,5.64,1.84,9.18-5,8.07-9.87,16.19-15.3,23.94A314,314,0,0,1,75.7,241.08C74.59,241.84,73.53,242.66,71.76,244ZM66,123.18c8.11-9.32,16.88-19.33,25.52-29.46a6.62,6.62,0,0,0,1.09-4.11c-.72-32-14.49-56.86-41.08-74.7-3.07-2.06-5-1.89-7.58.94C11.75,51.4,3.54,103.46,23.48,147a115.32,115.32,0,0,0,17.28,27.38c3.65-8.43,7.2-16.61,10.72-24.8a4.82,4.82,0,0,0,.35-1.81c-.11-13.58.53-27.22-.61-40.72S47.14,80,45,66.5c-.7-4.42,1.21-7.52,5-8.2s6.87,1.44,7.76,5.74c1.38,6.7,2.93,13.4,3.81,20.18C63.3,97.52,64.64,110.88,66,123.18Z"/></g></g></svg>