<svg xmlns="http://www.w3.org/2000/svg" viewBox="0 0 232.31 60.13"><defs><style>.cls-1{fill:#fff;}</style></defs><g id="Capa_2" data-name="Capa 2"><g id="Capa_1-2" data-name="Capa 1"><path className="cls-1" d="M20.74,54c-9.32-1-15.73-4.88-16-8.91s6-7.62,8.6-9.1c8-4.51,16.27-4.09,20.51-3.52,0-1.53-.06-3.41,0-4.94C30.16,27,13.94,25.72,4.53,36,3,37.73-.86,42,.17,46.09,1.42,51.12,9.57,54.77,20.74,54Z"/><path className="cls-1" d="M.4,39.88c5.78-7.8,9.81-10.25,16-12.38,6.84-2.35,17.31-1.68,17.31-1.68.06-.89,0-2.88.06-3.77-2.76-.31-16.31-1.11-26.57,8.35A30,30,0,0,0,.4,39.88Z"/><path className="cls-1" d="M1.23,36.41a34.63,34.63,0,0,1,7.39-8.34,30.91,30.91,0,0,1,8-4.85,41.91,41.91,0,0,1,17.21-2.57h0c0-.9-.15-2.88-.14-3.78-2.77-.16-16.35-.26-26.1,9.72A30.06,30.06,0,0,0,1.23,36.41Z"/><path className="cls-1" d="M56.67,33.51c4.36,8.31,4.62,15.81,1.41,18.25S48.43,51,45.74,49.62c-8.2-4.21-12.39-11.3-14.26-15.15-1.28.84-2.82,1.94-4.1,2.77C29,40.55,36.89,54.8,50.69,56.93c2.25.35,7.91,1.22,10.79-1.92C65,51.19,63.51,42.38,56.67,33.51Z"/><path className="cls-1" d="M56.17,58.25c-9.69-.5-14-2.51-19.18-6.52-5.74-4.41-11-13.51-11-13.51-.78.45-2.41,1.6-3.18,2,1.27,2.47,8.09,14.21,21.64,17.53A29.79,29.79,0,0,0,56.17,58.25Z"/><path className="cls-1" d="M52.83,59.48a34.5,34.5,0,0,1-11-1.55,31.17,31.17,0,0,1-8.46-4A42,42,0,0,1,21.68,41h0c-.75.49-2.32,1.71-3.07,2.2C20,45.64,27.43,57,41.13,59.62A30,30,0,0,0,52.83,59.48Z"/><path className="cls-1" d="M19.88,18.6c2.79-9,7.91-14.44,11.91-13.89S38.07,12.07,39,15c2.82,8.77.77,16.75-.63,20.79,1.5.31,3.36.63,4.86.94,1.18-3.5,5.69-19.14-2.56-30.41-1.35-1.84-4.73-6.45-9-6.26C26.51.23,21.32,7.5,19.88,18.6Z"/><path className="cls-1" d="M37.73,1.46c6.49,7.21,8.09,11.65,9,18.18.94,7.17-1.8,17.3-1.8,17.3.86.23,2.83.58,3.69.81.85-2.65,4.33-15.77-2.91-27.7A30.21,30.21,0,0,0,37.73,1.46Z"/><path className="cls-1" d="M41,3a34.39,34.39,0,0,1,6.71,8.9,30.83,30.83,0,0,1,3.17,8.79A41.86,41.86,0,0,1,49.94,38h0c.88.18,2.86.42,3.73.61.71-2.69,3.5-16-4.34-27.51A30.13,30.13,0,0,0,41,3Z"/><path className="cls-1" d="M106.74,2.55V34H98L86.1,19.69V34H75.79V2.55h8.7L96.42,16.82V2.55Z"/><path className="cls-1" d="M133.25,28.48H121.32L119.21,34H108.45L122.17,2.55h10.41L146.31,34H135.36Zm-2.91-7.62-3-7.9-3.05,7.9Z"/><path className="cls-1" d="M153.26,10.76h-9.19V2.55h29v8.21h-9.2V34H153.26Z"/><path className="cls-1" d="M201.89,26v8H175.78V2.55h25.53v8H186.19v3.68h13.28v7.62H186.19V26Z"/><path className="cls-1" d="M204,31.44l3.41-7.71a21.54,21.54,0,0,0,10.36,2.87c3,0,4.08-.63,4.08-1.71,0-3.94-17.36-.76-17.36-12.47,0-5.83,4.89-10.58,14.63-10.58A24.91,24.91,0,0,1,231,4.57l-3.18,7.67A19.41,19.41,0,0,0,219,9.91c-3.1,0-4.08.9-4.08,2,0,3.77,17.36.63,17.36,12.21,0,5.74-4.89,10.58-14.63,10.58C212.43,34.67,207.14,33.37,204,31.44Z"/><path className="cls-1" d="M89.61,56.27v2.32H76V39.89h13.2v2.33H78.71V48h9.37v2.27H78.71v6Z"/><path className="cls-1" d="M105.48,58.59l-5.61-7.72-5.53,7.72H91.26l7-9.59-6.6-9.11h3L100,47.08l5.19-7.19h2.91l-6.6,9,7.08,9.67Z"/><path className="cls-1" d="M126.19,46.41c0,4.06-2.94,6.52-7.81,6.52h-4.62v5.66h-2.67V39.89h7.29C123.25,39.89,126.19,42.35,126.19,46.41Zm-2.68,0c0-2.67-1.79-4.19-5.21-4.19h-4.54v8.39h4.54C121.72,50.61,123.51,49.08,123.51,46.41Z"/><path className="cls-1" d="M128.86,49.24c0-5.47,4.22-9.56,10-9.56s9.92,4.06,9.92,9.56-4.23,9.57-9.92,9.57S128.86,54.72,128.86,49.24Zm17.2,0a7.27,7.27,0,1,0-7.24,7.19A7,7,0,0,0,146.06,49.24Z"/><path className="cls-1" d="M165.33,58.59l-4-5.74c-.37,0-.77,0-1.17,0H155.5v5.69h-2.67V39.89h7.29c4.86,0,7.8,2.46,7.8,6.52a5.91,5.91,0,0,1-4.11,5.91l4.43,6.27Zm-.08-12.18c0-2.67-1.79-4.19-5.21-4.19H155.5v8.41H160C163.46,50.63,165.25,49.08,165.25,46.41Z"/><path className="cls-1" d="M175.7,42.22h-6.42V39.89h15.47v2.33h-6.41V58.59H175.7Z"/></g></g></svg>